<?xml version="1.0" encoding="UTF-8"?><svg id="Layer_2" xmlns="http://www.w3.org/2000/svg" viewBox="0 0 109.88 112.32"><defs><style>.cls-1{fill:#8dc157;}.cls-2{fill:#007e5a;}</style></defs><g id="Layer_1-2"><g id="leaf"><path class="cls-2" d="M105.23,71.01c-.98,8.23-3.6,11.12-2.48,18.1.68,4.22,2.4,7.46,3.7,9.48-1.15,1.21-2.31,2.43-3.46,3.64-4.05-1.61-7.4-2.22-9.58-2.49-6.74-.83-9.77.7-15.88-1.1-1.71-.5-6.82-2-6.89-4.26-.06-2.26,4.97-4.36,5.21-4.46,2.78-1.14,4.72-.84,4.9-1.61.21-.91-2.23-2.53-4.7-3.41-3.98-1.42-8.6-.37-17.68,1.79-7.92,1.89-9.97,2.4-13.08,1.66-1.45-.34-6.24-1.48-7.6-5.18-1.4-3.81,1.72-7.98,2.61-9.18,3.33-4.45,7.48-4.97,7.29-6.42-.22-1.77-6.47-2.43-14.74-3.17-7.25-.65-21.91-1.95-24.27-10.67-.85-3.15.02-6,.15-6.33,2.52-6.27,11.12-5.09,12.72-9.02C24.44,31.06-2.27,18.7.16,8.78,1.52,3.22,11.79-.45,19.13.84c4.17.73,8,3.18,11.36,5.32,6.34,4.05,8.18,7.15,10.36,6.42,3.35-1.14,1.04-9.15,5.09-11.75,3.89-2.49,12.26.9,17.05,6.61,8.15,9.72,3.59,23.34,8.26,24.81,3.99,1.25,7.77-8.54,13.35-7.54,5.1.91,9.13,10.38,9.32,18.19.14,5.63-1.72,10.34-.15,11.13,1.56.79,3.86-3.63,6.39-3.14,3.6.71,6.16,10.81,5.06,20.12Z"/><path class="cls-1" d="M109,112.3c-.93.25-2.04-2.7-4.74-6.67,0,0-.63-.89-2.34-3.11-4.42-5.77-9.39-10.13-16.02-17.38-3.21-3.51-2.23-2.76-5.94-6.77-3.63-3.93-3.21-3.26-11.85-12.3-10.12-10.58-8.33-9.03-10.8-11.41-7.25-6.99-13.36-11.43-20.16-19.85-2.96-3.67-2.74-4.08-2.67-4.15.39-.4,3.46,2.04,6.07,4.15,11.92,9.6,15.7,13.04,15.7,13.04,18.34,16.66,16.14,14.34,20.3,18.37,8.22,7.96,5.55,6.07,16.15,16.59,4.25,4.21,7.84,9.04,11.85,13.48,1.21,1.34,3.29,3.64,4.44,7.26,1.25,3.94,1.09,8.45,0,8.74Z"/></g></g></svg>