<?xml version="1.0" encoding="UTF-8"?>
<svg id="Layer_2" xmlns="http://www.w3.org/2000/svg" viewBox="0 0 201.94 234.4">
<defs>
<style>.cls-1{fill:#277956;}</style>
</defs><g id="Layer_1-2"><path id="coureur" class="cls-1" d="M130.02,129.52c-2.5-.2-4.56-.42-6.01-.59-1.76-.19-4.42-.48-7.68-.86-5.9-.69-6.45-.77-7.41-.34-1.71.76-2.25,2.01-4.74,5.83-1.52,2.34-3.27,4.53-4.79,6.87-3.57,5.47-8.73,10.03-15.92,16.39-1.95,1.72-7.81,8.13-17.74,14.04-5.99,3.56-11.83,7.37-17.51,11.44-.87.8-2.33,2.07-4.27,3.46-2.3,1.65-4.14,2.65-4.7,2.96-11.79,6.59-17.19,14.26-17.19,14.26-2.67,3.8-5.88,8.36-5.82,14.42.03,3.44,1.13,8.55-.53,14.22-.24.82-.69,2.17-1.81,2.63-2.22.9-5.44-2.45-6.1-3.13-4.02-4.18-3.18-8.22-5.44-19.22-.42-2.03-3.71-17.78-1.72-19.56.38-.34.81-.59.81-.59.62-.36,1.54-.72,2.96-.76,4.1-.11,9.51-1.28,12.86-2.87,2.12-1.01,3.62-2.32,6.46-5.08,7.45-7.23,7.39-10.68,14.84-18.28,3.22-3.28,5.8-5.23,8.67-6.82,2.1-1.16,4.39-2.09,7.07-2.85,2.49-1.16,4.21-2.19,5.62-3.53,2.35-2.23,3.45-4.56,4.05-5.84,5.99-12.74,6.14-10.76,11.12-22.94.74-1.8,1.81-4.48,3.05-7.79-1.17-8.58.8-15.96,6.47-22.9,13.24-13.6,18.62-30.5,22.6-48.84-5.87-.99-11.78-2.26-17.25-4.48-.76.28-1.87.73-3.16,1.38-3.71,1.86-6.64,4.25-12.41,10.4-2.29,2.44-5.11,5.56-8.24,9.3-.15,3.27-.23,5.96-.27,7.84-.15,6.31-.08,10-1.79,10.71-.14.06-.56.23-.98.07-1.08-.41-.7-2.49-1.95-4.71-.45-.79-.96-1.34-1.27-1.65-2.31,2.39-4.32,5.07-6.04,8.05-2.59,2.8-4.77,3.02-7.25-.32-4.46-6.01-.75-11.89,3.44-16.72,5.82-5.79,10.94-12.08,15.38-18.86,4.1-6.57,8.54-12.87,13.32-18.9,1.4-1.64,3.72-2.75,5.86-2.87,3.74-.21,7.95-.07,11.68.59,12.47.58,24.7,2.44,36.71,5.57,2.84.46,5.22-1.36,5.3-4.22l-1.26-9.02c-.56-10.34,8.09-16.57,18.06-15.22,1.65.22,5.77.78,9.14,4.13,6.19,6.16,3.75,15.64,3.61,16.15.2,2.04.4,4.09.6,6.13-.73.04-1.46.07-2.19.11-1.03,4.35-1.77,7.54-1.98,8.66-.02.12-.08.44-.33.74-.63.76-1.93.65-2.36.62-2.53-.18-6.32.38-8.23,1.28-1.08.51-2.49,1.56-3.65,3.98.51.8,1.3,2.01,2.33,3.43,1.29,1.78,2.29,2.97,2.6,3.36,2.26,2.8,3.34,6.35,4.43,9.57,1.06,3.12,2.69,7.59,5.18,13.29.43.56,1.1,1.23,2.03,1.42,2.39.49,4.74-2.5,6.85-4.86,2.23-2.49,5.56-5.8,10.35-9.32-.23-5.62-.01-11.24,2.61-16.38,1.07-.42,1.69.21,2.25,1.05.44,2.18,1.25,2.88,2.43,2.09.96-2.3,2.3-4.27,4.01-5.9,8.49-.38,8.65,11.42,4.46,16.66-5.15,5.83-9.99,11.92-14.54,18.26-2.79,3.9-5.86,7.61-9.2,11.15-4.65,5.46-9.64,9.56-16.05,4.8-4.71-6.07-9.41-12.14-14.12-18.2-.4-.1-1.08-.22-1.89-.07-.48.09-.87.25-1.15.39-6.26,8.09-12.32,16.31-18.18,24.68-.02.66.54,1.12,1.05,1.41,10.94,3.39,23.02,8.54,32.79,14.7,16.96,10.7,14.76,21.22-1.38,30.36-8,5.59-16.29,10.98-24.87,16.18-3.11,2.1-11.22,7.71-12.33,11.27-2.35,7.54,1.06,19.41,5.68,25.76.35,1.98.38,3.41-.36,4.23-.93,1.03-2.55.88-3.2.83-5.61-.46-13.2-10.31-17.87-16.23-9.56-12.12-11.53-13.64-10.77-16.29,1.13-3.93,6.2-3.09,15.97-9.58,6.41-4.25,10.64-8.88,12.81-11.3,6.85-7.62,9.74-14.16,13.69-16.8.25-.16,1.18-.77,1.06-1.29-.16-.76-2.38-.81-6.37-1.14Z"/></g></svg>